<svg width="142" height="142" viewBox="0 0 142 142" fill="none" xmlns="http://www.w3.org/2000/svg">
<mask id="path-1-inside-1" fill="white">
<path fill-rule="evenodd" clip-rule="evenodd" d="M28.2843 70.7107L70.7107 28.2843L113.137 70.7107L104.779 79.0685L118.921 93.2107L127.279 84.8528L141.421 70.7107L127.279 56.5685L84.8528 14.1421L70.7107 0L56.5685 14.1421L14.1421 56.5685L0 70.7107L14.1421 84.8528L22.2107 92.9214L36.3528 78.7792L28.2843 70.7107ZM50.495 92.9214L36.3528 107.063L56.5685 127.279L70.7107 141.421L84.8528 127.279L104.779 107.353L90.6371 93.2107L70.7107 113.137L50.495 92.9214Z"/>
</mask>
<path fill-rule="evenodd" clip-rule="evenodd" d="M28.2843 70.7107L70.7107 28.2843L113.137 70.7107L104.779 79.0685L118.921 93.2107L127.279 84.8528L141.421 70.7107L127.279 56.5685L84.8528 14.1421L70.7107 0L56.5685 14.1421L14.1421 56.5685L0 70.7107L14.1421 84.8528L22.2107 92.9214L36.3528 78.7792L28.2843 70.7107ZM50.495 92.9214L36.3528 107.063L56.5685 127.279L70.7107 141.421L84.8528 127.279L104.779 107.353L90.6371 93.2107L70.7107 113.137L50.495 92.9214Z" fill="#DDDDDD"/>
<path d="M70.7107 28.2843L141.421 -42.4264L70.7107 -113.137L-1.80688e-08 -42.4264L70.7107 28.2843ZM28.2843 70.7107L-42.4264 -1.80688e-08L-113.137 70.7107L-42.4264 141.421L28.2843 70.7107ZM113.137 70.7107L183.848 141.421L254.558 70.7107L183.848 -1.80688e-08L113.137 70.7107ZM104.779 79.0685L34.0686 8.35786L-36.6421 79.0685L34.0686 149.779L104.779 79.0685ZM118.921 93.2107L48.2107 163.921L118.921 234.632L189.632 163.921L118.921 93.2107ZM141.421 70.7107L212.132 141.421L282.843 70.7107L212.132 -1.80688e-08L141.421 70.7107ZM127.279 56.5685L197.99 -14.1421V-14.1421L127.279 56.5685ZM84.8528 14.1421L14.1421 84.8528H14.1421L84.8528 14.1421ZM70.7107 0L141.421 -70.7107L70.7107 -141.421L-2.40225e-06 -70.7107L70.7107 0ZM56.5685 14.1421L127.279 84.8528L56.5685 14.1421ZM14.1421 56.5685L-56.5685 -14.1421V-14.1421L14.1421 56.5685ZM0 70.7107L-70.7107 -1.80688e-08L-141.421 70.7107L-70.7107 141.421L0 70.7107ZM22.2107 92.9214L-48.5 163.632L22.2107 234.343L92.9214 163.632L22.2107 92.9214ZM36.3528 78.7792L107.063 149.49L177.774 78.7792L107.063 8.06855L36.3528 78.7792ZM50.495 92.9214L121.206 22.2107L50.495 -48.5L-20.2157 22.2107L50.495 92.9214ZM36.3528 107.063L-34.3579 36.3528L-105.069 107.063L-34.3579 177.774L36.3528 107.063ZM70.7107 141.421L-1.80688e-08 212.132L70.7107 282.843L141.421 212.132L70.7107 141.421ZM104.779 107.353L175.49 178.063L246.201 107.353L175.49 36.6421L104.779 107.353ZM90.6371 93.2107L161.348 22.5L90.6371 -48.2107L19.9264 22.5L90.6371 93.2107ZM70.7107 113.137L-1.80688e-08 183.848L70.7107 254.558L141.421 183.848L70.7107 113.137ZM-1.80688e-08 -42.4264L-42.4264 -1.80688e-08L98.9949 141.421L141.421 98.9949L-1.80688e-08 -42.4264ZM183.848 -1.80688e-08L141.421 -42.4264L-1.80688e-08 98.9949L42.4264 141.421L183.848 -1.80688e-08ZM175.49 149.779L183.848 141.421L42.4264 -1.80688e-08L34.0686 8.35786L175.49 149.779ZM189.632 22.5L175.49 8.35786L34.0686 149.779L48.2107 163.921L189.632 22.5ZM189.632 163.921L197.99 155.563L56.5685 14.1421L48.2107 22.5L189.632 163.921ZM197.99 155.563L212.132 141.421L70.7107 -1.80688e-08L56.5685 14.1421L197.99 155.563ZM212.132 -1.80688e-08L197.99 -14.1421L56.5685 127.279L70.7107 141.421L212.132 -1.80688e-08ZM197.99 -14.1421L155.563 -56.5685L14.1421 84.8528L56.5685 127.279L197.99 -14.1421ZM155.563 -56.5685L141.421 -70.7107L-2.40225e-06 70.7107L14.1421 84.8528L155.563 -56.5685ZM-2.40225e-06 -70.7107L-14.1421 -56.5685L127.279 84.8528L141.421 70.7107L-2.40225e-06 -70.7107ZM-14.1421 -56.5685L-56.5685 -14.1421L84.8528 127.279L127.279 84.8528L-14.1421 -56.5685ZM-56.5685 -14.1421L-70.7107 -1.80688e-08L70.7107 141.421L84.8528 127.279L-56.5685 -14.1421ZM-70.7107 141.421L-56.5685 155.563L84.8528 14.1421L70.7107 -1.80688e-08L-70.7107 141.421ZM-56.5685 155.563L-48.5 163.632L92.9214 22.2107L84.8528 14.1421L-56.5685 155.563ZM-34.3579 8.06855L-48.5 22.2107L92.9214 163.632L107.063 149.49L-34.3579 8.06855ZM-42.4264 141.421L-34.3579 149.49L107.063 8.06855L98.9949 -1.80688e-08L-42.4264 141.421ZM-20.2157 22.2107L-34.3579 36.3528L107.063 177.774L121.206 163.632L-20.2157 22.2107ZM-34.3579 177.774L-14.1421 197.99L127.279 56.5685L107.063 36.3528L-34.3579 177.774ZM-14.1421 197.99L-1.80688e-08 212.132L141.421 70.7107L127.279 56.5685L-14.1421 197.99ZM141.421 212.132L155.563 197.99L14.1421 56.5685L-1.80688e-08 70.7107L141.421 212.132ZM155.563 197.99L175.49 178.063L34.0686 36.6421L14.1421 56.5685L155.563 197.99ZM175.49 36.6421L161.348 22.5L19.9264 163.921L34.0686 178.063L175.49 36.6421ZM141.421 183.848L161.348 163.921L19.9264 22.5L-1.80688e-08 42.4264L141.421 183.848ZM-20.2157 163.632L-1.80688e-08 183.848L141.421 42.4264L121.206 22.2107L-20.2157 163.632Z" fill="#DDDDDD" mask="url(#path-1-inside-1)"/>
</svg>
