<svg width="380" height="29" viewBox="0 0 380 29" fill="none" xmlns="http://www.w3.org/2000/svg">
<path d="M179.152 23.336C177.376 23.336 175.776 22.96 174.352 22.208C172.944 21.456 171.832 20.416 171.016 19.088C170.216 17.76 169.816 16.264 169.816 14.6C169.816 12.936 170.216 11.44 171.016 10.112C171.832 8.784 172.944 7.744 174.352 6.992C175.776 6.24 177.376 5.864 179.152 5.864C180.928 5.864 182.52 6.24 183.928 6.992C185.352 7.744 186.464 8.784 187.264 10.112C188.08 11.44 188.488 12.936 188.488 14.6C188.488 16.264 188.08 17.76 187.264 19.088C186.464 20.416 185.352 21.456 183.928 22.208C182.52 22.96 180.928 23.336 179.152 23.336ZM179.152 19.4C180 19.4 180.768 19.2 181.456 18.8C182.144 18.4 182.688 17.84 183.088 17.12C183.488 16.384 183.688 15.544 183.688 14.6C183.688 13.656 183.488 12.824 183.088 12.104C182.688 11.368 182.144 10.8 181.456 10.4C180.768 10 180 9.8 179.152 9.8C178.304 9.8 177.536 10 176.848 10.4C176.16 10.8 175.616 11.368 175.216 12.104C174.816 12.824 174.616 13.656 174.616 14.6C174.616 15.544 174.816 16.384 175.216 17.12C175.616 17.84 176.16 18.4 176.848 18.8C177.536 19.2 178.304 19.4 179.152 19.4ZM198.321 18.536H195.729V23H190.977V6.2H198.657C200.177 6.2 201.497 6.456 202.617 6.968C203.737 7.464 204.601 8.184 205.209 9.128C205.817 10.056 206.121 11.152 206.121 12.416C206.121 13.632 205.833 14.696 205.257 15.608C204.697 16.504 203.889 17.208 202.833 17.72L206.457 23H201.369L198.321 18.536ZM201.321 12.416C201.321 11.632 201.073 11.024 200.577 10.592C200.081 10.16 199.345 9.944 198.369 9.944H195.729V14.864H198.369C199.345 14.864 200.081 14.656 200.577 14.24C201.073 13.808 201.321 13.2 201.321 12.416Z" fill="#DDDDDD"/>
<line x1="230" y1="14" x2="380" y2="14" stroke="#DDDDDD" stroke-width="4"/>
<line y1="14" x2="150" y2="14" stroke="#DDDDDD" stroke-width="4"/>
</svg>
