<svg width="60" height="62" viewBox="0 0 60 62" fill="none" xmlns="http://www.w3.org/2000/svg">
<path d="M30 0.720215C13.46 0.720215 0 14.3607 0 31.1202C0 47.8797 13.46 61.5202 30 61.5202C46.54 61.5202 60 47.8797 60 31.1202C60 14.3607 46.54 0.720215 30 0.720215ZM30 5.78688C43.84 5.78688 55 17.0987 55 31.1202C55 43.8558 45.78 54.3286 33.72 56.1465V38.5074H40.84L41.96 31.18H33.72V27.1763C33.72 24.1343 34.71 21.4317 37.51 21.4317H42.03V15.0396C41.23 14.9302 39.56 14.6931 36.39 14.6931C29.77 14.6931 25.89 18.2347 25.89 26.3059V31.18H19.08V38.5074H25.89V56.0827C14.02 54.0996 5 43.719 5 31.1202C5 17.0987 16.16 5.78688 30 5.78688Z" fill="#222831"/>
</svg>
