<svg width="66" height="63" viewBox="0 0 66 63" fill="none" xmlns="http://www.w3.org/2000/svg">
<path d="M32.9999 0.609103C24.5799 0.521956 16.4698 3.82642 10.4598 9.79496C4.43984 15.7635 1.00992 23.9087 0.919922 32.4399C0.949922 39.1826 3.08991 45.7409 7.02991 51.1724C10.9699 56.6049 16.5099 60.6319 22.8499 62.6758C24.4499 62.9706 25.0399 61.9958 25.0399 61.1385V55.7304C16.1099 57.6506 14.2198 51.4744 14.2198 51.4744C13.6198 49.5349 12.3599 47.877 10.6599 46.8039C7.73991 44.8533 10.8899 44.8826 10.8899 44.8826C11.8999 45.0194 12.8598 45.3853 13.7098 45.9537C14.5598 46.5222 15.2699 47.2771 15.7899 48.1638C16.6999 49.7537 18.1799 50.9211 19.9299 51.4126C21.6699 51.9051 23.5399 51.6821 25.1199 50.7944C25.2899 49.1751 26.0099 47.6683 27.1699 46.5384C20.0499 45.7399 12.5798 43.0212 12.5798 30.8145C12.5198 27.6307 13.6798 24.5461 15.8198 22.2144C14.8498 19.4804 14.9599 16.4688 16.1399 13.8199C16.1399 13.8199 18.8499 12.9626 24.8899 17.0717C30.1499 15.652 35.6799 15.652 40.9299 17.0717C47.0599 12.9626 49.6799 13.8199 49.6799 13.8199C50.8599 16.4688 50.9799 19.4804 49.9999 22.2144C52.1899 24.5035 53.4199 27.5668 53.4199 30.7558C53.4199 42.9918 45.8898 45.6812 38.8298 46.4786C39.6098 47.2397 40.1998 48.1638 40.5798 49.1863C40.9598 50.2077 41.1099 51.3021 41.0199 52.3904V61.1092C41.0199 62.1438 41.5998 62.9706 43.2098 62.6464C49.5298 60.5903 55.0499 56.5623 58.9799 51.1369C62.9099 45.7126 65.0398 39.1685 65.0798 32.4399C64.9898 23.9087 61.5599 15.7635 55.5399 9.79496C49.5299 3.82642 41.4199 0.521956 32.9999 0.609103Z" fill="#222831"/>
</svg>
