<svg width="60" height="62" viewBox="0 0 60 62" fill="none" xmlns="http://www.w3.org/2000/svg">
<path d="M30 0.720215C21.85 0.720215 20.83 0.757701 17.63 0.902607C14.44 1.05461 12.26 1.56432 10.35 2.31621C8.37998 3.09141 6.70003 4.13211 5.03003 5.82235C3.37003 7.51158 2.33995 9.20689 1.56995 11.2082C0.829946 13.1457 0.330054 15.3497 0.180054 18.5873C0.0300537 21.83 0 22.8615 0 31.1202C0 39.3789 0.0400537 40.4104 0.180054 43.6531C0.330054 46.8877 0.829946 49.0947 1.56995 51.0322C2.33995 53.0285 3.37003 54.7288 5.03003 56.4181C6.70003 58.1053 8.36998 59.152 10.35 59.9242C12.26 60.6741 14.44 61.1878 17.63 61.3378C20.83 61.4898 21.85 61.5202 30 61.5202C38.15 61.5202 39.17 61.4817 42.37 61.3378C45.56 61.1858 47.74 60.6741 49.65 59.9242C51.62 59.149 53.3 58.1053 54.97 56.4181C56.63 54.7288 57.6601 53.0366 58.4301 51.0322C59.1701 49.0947 59.6699 46.8877 59.8199 43.6531C59.9699 40.4104 60 39.3789 60 31.1202C60 22.8615 59.9599 21.83 59.8199 18.5873C59.6699 15.3527 59.1701 13.1437 58.4301 11.2082C57.6601 9.20891 56.63 7.51158 54.97 5.82235C53.3 4.13211 51.63 3.08938 49.65 2.31621C47.74 1.56432 45.56 1.05157 42.37 0.902607C39.17 0.750607 38.15 0.720215 30 0.720215ZM30 6.19221C38.01 6.19221 38.96 6.23274 42.13 6.37157C45.05 6.51141 46.6399 7.00289 47.6899 7.42342C49.0999 7.97265 50.09 8.63232 51.15 9.69327C52.19 10.7573 52.84 11.7676 53.39 13.1913C53.8 14.2604 54.29 15.8695 54.42 18.8335C54.56 22.0407 54.59 23.0034 54.59 31.1202C54.59 39.237 54.56 40.2027 54.41 43.4069C54.26 46.3709 53.77 47.979 53.36 49.0481C52.8 50.4718 52.16 51.4801 51.11 52.5492C50.06 53.6111 49.05 54.2698 47.66 54.819C46.61 55.2345 44.9999 55.731 42.0699 55.8658C38.8899 56.0097 37.9501 56.0431 29.9301 56.0431C21.9001 56.0431 20.96 56.0046 17.78 55.8557C14.85 55.7006 13.2399 55.2071 12.1899 54.7896C10.7599 54.2222 9.78999 53.5757 8.73999 52.5117C7.68999 51.4507 7.00999 50.4242 6.48999 49.0157C6.07999 47.9517 5.58994 46.3182 5.43994 43.3542C5.32994 40.1622 5.29004 39.1762 5.29004 31.0817C5.29004 22.9852 5.32994 21.9982 5.43994 18.7677C5.58994 15.8037 6.07999 14.1722 6.48999 13.1082C7.00999 11.6642 7.68999 10.6762 8.73999 9.61018C9.78999 8.54821 10.7599 7.86421 12.1899 7.33525C13.2399 6.91472 14.82 6.42022 17.74 6.26822C20.93 6.15473 21.86 6.11621 29.89 6.11621L30 6.19221ZM30 15.5098C21.49 15.5098 14.59 22.5018 14.59 31.1202C14.59 39.7457 21.5 46.7306 30 46.7306C38.51 46.7306 45.41 39.7386 45.41 31.1202C45.41 22.4947 38.5 15.5098 30 15.5098ZM30 41.2535C24.47 41.2535 20 36.7189 20 31.1202C20 25.5215 24.47 20.9869 30 20.9869C35.53 20.9869 40 25.5215 40 31.1202C40 36.7189 35.53 41.2535 30 41.2535ZM49.62 14.8937C49.62 16.9082 48 18.5417 46.02 18.5417C44.03 18.5417 42.41 16.9052 42.41 14.8937C42.41 12.8822 44.03 11.2487 46.02 11.2487C48 11.2467 49.62 12.8822 49.62 14.8937Z" fill="#222831"/>
</svg>
