<svg width="61" height="51" viewBox="0 0 61 51" fill="none" xmlns="http://www.w3.org/2000/svg">
<path d="M58.6399 6.53121C57.6999 6.95479 56.7299 7.31249 55.7399 7.60332C56.9099 6.25964 57.7999 4.67884 58.3499 2.94908C58.4699 2.56097 58.3499 2.13638 58.0299 1.88305C57.72 1.6287 57.28 1.5983 56.93 1.80603C54.83 3.07067 52.56 3.97862 50.18 4.5096C47.79 2.13739 44.53 0.786621 41.17 0.786621C34.07 0.786621 28.29 6.64167 28.29 13.8384C28.29 14.4048 28.32 14.9692 28.39 15.5245C19.58 14.7402 11.39 10.3515 5.75998 3.35745C5.55998 3.10817 5.25002 2.9734 4.93002 2.99975C4.62002 3.02407 4.33001 3.20544 4.17001 3.4831C3.03002 5.4672 2.43003 7.73707 2.43003 10.0454C2.43003 13.1908 3.53997 16.1751 5.49997 18.5058C4.89997 18.297 4.31999 18.0366 3.76999 17.7265C3.47999 17.5593 3.10992 17.5624 2.81992 17.7326C2.52992 17.9039 2.33993 18.218 2.32993 18.5615C2.32993 18.6193 2.32993 18.677 2.32993 18.7358C2.32993 23.4296 4.82998 27.6562 8.63998 29.9595C8.30998 29.927 7.98 29.8784 7.66 29.8156C7.32 29.7507 6.97997 29.8693 6.74997 30.1287C6.52997 30.3881 6.45002 30.7489 6.55002 31.0782C7.97002 35.5419 11.6 38.8251 15.99 39.8263C12.35 42.1377 8.18003 43.3486 3.81003 43.3486C2.90003 43.3486 1.97993 43.2949 1.07993 43.1875C0.63993 43.1328 0.210033 43.4003 0.0600329 43.83C-0.099967 44.2607 0.0699255 44.7399 0.449925 44.9862C6.05992 48.6362 12.5599 50.5656 19.2299 50.5656C32.3399 50.5656 40.5499 44.2992 45.1199 39.042C50.8199 32.4877 54.0899 23.8116 54.0899 15.2388C54.0899 14.8801 54.0899 14.5183 54.0699 14.1586C56.3199 12.441 58.2599 10.3626 59.8399 7.97318C60.0799 7.6104 60.0499 7.1311 59.7699 6.7967C59.4999 6.4623 59.0299 6.35489 58.6399 6.53121Z" fill="#222831"/>
</svg>
